<mxfile host="app.diagrams.net" modified="2023-06-09T20:01:54.609Z" agent="Mozilla/5.0 (Macintosh; Intel Mac OS X 10.15; rv:109.0) Gecko/20100101 Firefox/113.0" version="21.3.8" etag="AQOn0AKtL6OUfTcepxVV" type="github">
  <diagram name="Page-1" id="zzwxj_0BwU92Y-n3VAZB">
    <mxGraphModel>
      <root>
        <mxCell id="0" />
        <mxCell id="1" parent="0" />
      </root>
    </mxGraphModel>
  </diagram>
</mxfile>
